# xmcd
#
# Track frame offsets: 
#        150
#        9255
#        21589
#        35176
#        46686
#        61825
#        74932
#        89175
#        102299
#        111238
#        121936
#        134234
#        146177
#        163550
#        177292
#        195144
#
# Disc length: 2757 seconds
#
# Revision: 2
# Processed by: cddbd v1.5.2PL0 Copyright (c) Steve Scherf et al.
# Submitted via: ExactAudioCopy v0.99pb4
#
DISCID=ef0ac310
DTITLE=Various Artist - Ryman Country Homecoming, Vol. 1
DYEAR=1999
DGENRE=Country
TTITLE0=Willie Nelson - On The Road Again
TTITLE1=Glen Campbell - Gentle On My Mind
TTITLE2=Glen Campbell - Crying
TTITLE3=Crystal Gayle - Don't It Make My Brown Eyes Blue
TTITLE4=Bobby Bare - Lincoln Park Inn
TTITLE5=Lorrie Morgan - What Part Of No Don't You Understand
TTITLE6=B.J. Thomas - I'm So Lonesome I Could Cry
TTITLE7=Waylon Jennings - Good Hearted Woman
TTITLE8=Ricky Van Shelton - From A Jack To A King
TTITLE9=Larry Gatlin - All The Gold In California
TTITLE10=Janie Fricke - He's A Heartache (Looking For A Place To Happe
TTITLE10=n)
TTITLE11=Willie Nelson and Waylon Jennings - Mamas Don't Let Your Babies
TTITLE11=Grow Up To Be Cowboys
TTITLE12=T.G. Sheppard - Last Cheater's Waltz
TTITLE13=Lynn Anderson - Rose Garden
TTITLE14=Roy Clark - Yesterday When I Was Young
TTITLE15=B.J. Thomas - Raindrops Keep Falling On My Head
EXTD=
EXTT0=
EXTT1=
EXTT2=
EXTT3=
EXTT4=
EXTT5=
EXTT6=
EXTT7=
EXTT8=
EXTT9=
EXTT10=
EXTT11=
EXTT12=
EXTT13=
EXTT14=
EXTT15=
PLAYORDER=
